<svg xmlns="http://www.w3.org/2000/svg" viewBox="0 0 64 80" x="0px" y="0px"><g data-name="Layer 29"><path d="M36,9H12a1,1,0,0,0-1,1v4a1,1,0,0,0,1,1H36a1,1,0,0,0,1-1V10A1,1,0,0,0,36,9Zm-1,4H13V11H35Z"/><path d="M17.307,18.279A5.026,5.026,0,1,0,18.519,19.9l2.188-2.188-1.414-1.414ZM17,22a3,3,0,1,1-3-3,2.972,2.972,0,0,1,1.894.692L14,21.586l-1.293-1.293-1.414,1.414,2,2a1,1,0,0,0,1.414,0l2.239-2.239A3.008,3.008,0,0,1,17,22Z"/><path d="M17.307,30.279A5.026,5.026,0,1,0,18.519,31.9l2.188-2.188-1.414-1.414ZM17,34a3,3,0,1,1-3-3,2.972,2.972,0,0,1,1.894.692L14,33.586l-1.293-1.293-1.414,1.414,2,2a1,1,0,0,0,1.414,0l2.239-2.239A3.008,3.008,0,0,1,17,34Z"/><path d="M19.293,40.293l-1.986,1.986A5.026,5.026,0,1,0,18.519,43.9l2.188-2.188ZM17,46a3,3,0,1,1-3-3,2.972,2.972,0,0,1,1.894.692L14,45.586l-1.293-1.293-1.414,1.414,2,2a1,1,0,0,0,1.414,0l2.239-2.239A3.008,3.008,0,0,1,17,46Z"/><rect x="21" y="19" width="16" height="2"/><rect x="21" y="23" width="10" height="2"/><rect x="21" y="31" width="16" height="2"/><rect x="21" y="35" width="10" height="2"/><rect x="21" y="44" width="16" height="2"/><rect x="21" y="48" width="10" height="2"/><path d="M63,18.828a3.829,3.829,0,0,0-6.536-2.707L47,25.586V2a1,1,0,0,0-1-1H2A1,1,0,0,0,1,2V62a1,1,0,0,0,1,1H46a1,1,0,0,0,1-1V36.414L61.878,21.535A3.8,3.8,0,0,0,63,18.828ZM45,61H3V3H45V27.586l-2,2V6a1,1,0,0,0-1-1H6A1,1,0,0,0,5,6V58a1,1,0,0,0,1,1H42a1,1,0,0,0,1-1V40.088l.394-.169a1,1,0,0,0,.313-.212L45,38.414ZM37.9,40.1l1.433-3.345,1.911,1.911Zm.389-5.8a1,1,0,0,0-.212.313l-3,7A1,1,0,0,0,36,43a.989.989,0,0,0,.394-.081L41,40.945V57H7V7H41V31.587ZM60.464,20.121,43,37.586,40.414,35,57.878,17.535A1.829,1.829,0,0,1,61,18.828,1.839,1.839,0,0,1,60.464,20.121Z"/></g><text x="0" y="79" fill="#000000" font-size="5px" font-weight="bold" font-family="'Helvetica Neue', Helvetica, Arial-Unicode, Arial, Sans-serif">Created by nareerat jaikaew</text><text x="0" y="84" fill="#000000" font-size="5px" font-weight="bold" font-family="'Helvetica Neue', Helvetica, Arial-Unicode, Arial, Sans-serif">from the Noun Project</text></svg>