<svg xmlns="http://www.w3.org/2000/svg" data-name="Layer 3" viewBox="0 0 64 80" x="0px" y="0px"><path d="M43.291,33.118l1.7-.283L42.108,15.564l.444-.222a2.618,2.618,0,0,0,0-4.683l-.434-.218a2.623,2.623,0,0,0-2.2-.065L34.6,12.653l-.042-.127a3.692,3.692,0,0,0-6.542-.93l-.771-.31a3.953,3.953,0,0,0-5.179,2.3l-.819,2.195a3.979,3.979,0,0,0,2.454,5.164l1.994.669a4.966,4.966,0,0,0,1.165,2.228l-.572,3.852a4.726,4.726,0,0,1-1.4,2.7l-2.061,1.985c-.007.007-.012.016-.02.024A31.192,31.192,0,0,0,1,62a1,1,0,0,0,1,1H62a1,1,0,0,0,1-1A30.881,30.881,0,0,0,43.291,33.118ZM59.23,52H48.107a42.222,42.222,0,0,0-3.055-10H53v-.046A28.864,28.864,0,0,1,59.23,52ZM17.94,52A39.386,39.386,0,0,1,21.2,42H42.8A39.505,39.505,0,0,1,46.06,52ZM46.4,54a53.483,53.483,0,0,1,.578,7H17.018a53.513,53.513,0,0,1,.577-7ZM22.668,36.03A24.365,24.365,0,0,0,19.988,40H13.173a28.731,28.731,0,0,1,8.892-5.234A2.649,2.649,0,0,0,22.668,36.03Zm1.826.947c.092.009.184.019.276.019a2.81,2.81,0,0,0,1.949-.775l2.615-2.52c.1-.1.182-.208.276-.31A7.892,7.892,0,0,1,32.016,33h.042A7.879,7.879,0,0,1,34,33.292V34a3,3,0,0,0,3,3,2.971,2.971,0,0,0,1.888-.688A19.88,19.88,0,0,1,41.712,40H22.284A20.867,20.867,0,0,1,24.494,36.977ZM31.7,27.7l1.527,1.188A1.985,1.985,0,0,1,34,30.467v.6c-.645-.041-1.292-.066-1.94-.067h-.027c-.33,0-.66.007-.989.017a6.681,6.681,0,0,0,.257-1.006ZM50.921,40H44.033a22.491,22.491,0,0,0-4.089-5.449,3.106,3.106,0,0,0,.042-.413A28.9,28.9,0,0,1,50.921,40Zm-7.935-7c-.97-.364-1.967-.678-2.986-.949V29.81a6.98,6.98,0,0,0-2.519-5.377L34,21.532V19.618L40.236,16.5ZM31.058,12a1.692,1.692,0,0,1,1.608,1.158l.385,1.158a1,1,0,0,0,1.343.6l6.31-2.7a.622.622,0,0,1,.52.015l.435.218a.618.618,0,0,1,0,1.106l-9.105,4.552A1,1,0,0,0,32,19v3a1,1,0,0,0,.36.768l3.841,3.2A4.988,4.988,0,0,1,38,29.81V34a1,1,0,0,1-2,0V30.467a3.974,3.974,0,0,0-1.544-3.157l-5.737-4.462a2.992,2.992,0,0,1-1.052-3.158l1.756-6.441A1.7,1.7,0,0,1,31.058,12ZM23.2,18.027a1.973,1.973,0,0,1-.069-1.551l.819-2.195a1.953,1.953,0,0,1,1.048-1.114,1.931,1.931,0,0,1,1.51-.026l.79.318-1.556,5.705c-.03.109-.042.218-.064.327l-1.332-.446A1.945,1.945,0,0,1,23.2,18.027Zm1.024,15.785,2.061-1.985a6.748,6.748,0,0,0,1.992-3.844l.392-2.644,1.249.971-.582,3.363a4.7,4.7,0,0,1-1.384,2.588l-2.616,2.52a.816.816,0,0,1-1,.092.684.684,0,0,1-.324-.514A.659.659,0,0,1,24.219,33.812ZM11.076,42h7.913a42.951,42.951,0,0,0-3.084,10H4.81A29.4,29.4,0,0,1,11.076,42ZM4.153,54H15.575a55.39,55.39,0,0,0-.557,7h-12A28.587,28.587,0,0,1,4.153,54Zm44.828,7a56.337,56.337,0,0,0-.548-7H59.887a29.17,29.17,0,0,1,1.1,7Z"/><path d="M32,9a4,4,0,1,0-4-4A4,4,0,0,0,32,9Zm0-6a2,2,0,1,1-2,2A2,2,0,0,1,32,3Z"/><text x="0" y="79" fill="#000000" font-size="5px" font-weight="bold" font-family="'Helvetica Neue', Helvetica, Arial-Unicode, Arial, Sans-serif">Created by nareerat jaikaew</text><text x="0" y="84" fill="#000000" font-size="5px" font-weight="bold" font-family="'Helvetica Neue', Helvetica, Arial-Unicode, Arial, Sans-serif">from the Noun Project</text></svg>