<svg xmlns="http://www.w3.org/2000/svg" viewBox="0 0 64 80" x="0px" y="0px"><g data-name="Layer 7"><path d="M13,9a8,8,0,1,0,8,8A8.009,8.009,0,0,0,13,9Zm0,14a6,6,0,1,1,6-6A6.006,6.006,0,0,1,13,23Z"/><path d="M33,25a8,8,0,1,0-8-8A8.009,8.009,0,0,0,33,25Zm0-14a6,6,0,1,1-6,6A6.006,6.006,0,0,1,33,11Z"/><polygon points="14 13 12 13 12 16 9 16 9 18 12 18 12 21 14 21 14 18 17 18 17 16 14 16 14 13"/><polygon points="30.707 20.707 33 18.414 35.293 20.707 36.707 19.293 34.414 17 36.707 14.707 35.293 13.293 33 15.586 30.707 13.293 29.293 14.707 31.586 17 29.293 19.293 30.707 20.707"/><path d="M20,27H6a1,1,0,0,0-1,1v6a1,1,0,0,0,1,1H20a1,1,0,0,0,1-1V28A1,1,0,0,0,20,27Zm-1,6H7V29H19Z"/><path d="M18,37H8a3,3,0,0,0-3,3V56a3,3,0,0,0,3,3H18a3,3,0,0,0,3-3V40A3,3,0,0,0,18,37Zm1,19a1,1,0,0,1-1,1H8a1,1,0,0,1-1-1V40a1,1,0,0,1,1-1H18a1,1,0,0,1,1,1Z"/><rect x="9" y="41" width="8" height="2"/><rect x="9" y="45" width="8" height="2"/><rect x="9" y="49" width="8" height="2"/><rect x="9" y="53" width="8" height="2"/><rect x="29" y="45" width="8" height="2"/><rect x="29" y="49" width="8" height="2"/><rect x="29" y="53" width="8" height="2"/><path d="M63,19.243a5.242,5.242,0,0,0-8.949-3.707L51,18.586V2a1,1,0,0,0-1-1H8A1,1,0,0,0,7,2V5H2A1,1,0,0,0,1,6V62a1,1,0,0,0,1,1H44a1,1,0,0,0,1-1V59h5a1,1,0,0,0,1-1V33.414L61.466,22.949A5.213,5.213,0,0,0,63,19.243ZM39,30.586,36.586,33H27V29H39ZM34.22,41H29v2h6a1,1,0,0,0,.242-.03L39,42.031V56a1,1,0,0,1-1,1H28a1,1,0,0,1-1-1V40a1,1,0,0,1,1-1h6.72Zm2.154-.375,1.168-4.669,3.5,3.5ZM43,38.586,41.414,37,56,22.414,57.586,24Zm-3-3L38.414,34,53,19.414,54.586,21ZM9,3H49V20.586l-4,4V6a1,1,0,0,0-1-1H9ZM3,61V7H43V26.586l-2,2V28a1,1,0,0,0-1-1H26a1,1,0,0,0-1,1v6a1,1,0,0,0,1,1h9.72l-.5,2H28a3,3,0,0,0-3,3V56a3,3,0,0,0,3,3H38a3,3,0,0,0,3-3V41.531l2-.5V61Zm46-4H45V39.414l4-4ZM60.051,21.536,59,22.586,54.415,18l1.051-1.051a3.243,3.243,0,0,1,4.585,4.587Z"/></g><text x="0" y="79" fill="#000000" font-size="5px" font-weight="bold" font-family="'Helvetica Neue', Helvetica, Arial-Unicode, Arial, Sans-serif">Created by nareerat jaikaew</text><text x="0" y="84" fill="#000000" font-size="5px" font-weight="bold" font-family="'Helvetica Neue', Helvetica, Arial-Unicode, Arial, Sans-serif">from the Noun Project</text></svg>