<svg xmlns="http://www.w3.org/2000/svg" data-name="Layer 3" viewBox="0 0 64 80" x="0px" y="0px"><path d="M60,1H4A3,3,0,0,0,1,4V60a3,3,0,0,0,3,3H60a3,3,0,0,0,3-3V4A3,3,0,0,0,60,1Zm1,3V7H54a1,1,0,0,1-1-1V3h7A1,1,0,0,1,61,4ZM4,3H51V6a3,3,0,0,0,3,3h7v2H28a1,1,0,0,1-1-1V8a3,3,0,0,0-3-3H10A3,3,0,0,0,7,8v2a1,1,0,0,1-1,1H3V4A1,1,0,0,1,4,3Zm9,4h8v3a1,1,0,0,1-1,1H14a1,1,0,0,1-1-1Zm1,6h6a3,3,0,0,0,3-3V7h1a1,1,0,0,1,1,1v2a3,3,0,0,0,3,3H61V43H3V13H6a3,3,0,0,0,3-3V8a1,1,0,0,1,1-1h1v3A3,3,0,0,0,14,13ZM60,61H4a1,1,0,0,1-1-1V45H61V60A1,1,0,0,1,60,61Z"/><path d="M5,28A13,13,0,1,0,18,15,13.015,13.015,0,0,0,5,28Zm3.792-6H11.5a1.5,1.5,0,0,1,0,3A2.5,2.5,0,0,0,9,27.5a2.5,2.5,0,0,1-1.825,2.4A10.8,10.8,0,0,1,8.792,22ZM29,28a10.949,10.949,0,0,1-2.521,7H24a1,1,0,0,1-1-1,3,3,0,0,0-3-3H17a1,1,0,0,1,0-2h3a3,3,0,0,0,0-6,1,1,0,0,1,0-2h6.479A10.949,10.949,0,0,1,29,28Zm-4.695-9H20a3,3,0,0,0,0,6,1,1,0,0,1,0,2H17a3,3,0,0,0,0,6h3a1,1,0,0,1,1,1,3,3,0,0,0,3,3h.3A10.968,10.968,0,0,1,7.7,31.818,4.494,4.494,0,0,0,11,27.5a.5.5,0,0,1,.5-.5,3.5,3.5,0,0,0,0-7H10.474a10.939,10.939,0,0,1,13.831-1Z"/><path d="M34,23H58a1,1,0,0,0,1-1V16a1,1,0,0,0-1-1H34a1,1,0,0,0-1,1v6A1,1,0,0,0,34,23Zm1-6H57v4H35Z"/><path d="M34,41H58a1,1,0,0,0,1-1V34a1,1,0,0,0-1-1H34a1,1,0,0,0-1,1v6A1,1,0,0,0,34,41Zm1-6H57v4H35Z"/><rect x="35" y="25" width="22" height="2"/><rect x="37" y="29" width="18" height="2"/><path d="M56,47H8a1,1,0,0,0-1,1V58a1,1,0,0,0,1,1H56a1,1,0,0,0,1-1V48A1,1,0,0,0,56,47ZM55,57H9V49H55Z"/><circle cx="30" cy="7" r="2"/><circle cx="36" cy="7" r="2"/><circle cx="42" cy="7" r="2"/><text x="0" y="79" fill="#000000" font-size="5px" font-weight="bold" font-family="'Helvetica Neue', Helvetica, Arial-Unicode, Arial, Sans-serif">Created by nareerat jaikaew</text><text x="0" y="84" fill="#000000" font-size="5px" font-weight="bold" font-family="'Helvetica Neue', Helvetica, Arial-Unicode, Arial, Sans-serif">from the Noun Project</text></svg>