<svg xmlns="http://www.w3.org/2000/svg" data-name="Layer 3" viewBox="0 0 64 80" x="0px" y="0px"><path d="M63,18.535a4.536,4.536,0,0,0-7.743-3.207L47,23.586V7a3,3,0,0,0-3-3H39a3,3,0,0,0-6,0H27a3,3,0,0,0-6,0H15A3,3,0,0,0,9,4H4A3,3,0,0,0,1,7V60a3,3,0,0,0,3,3H44a3,3,0,0,0,3-3V36.414L61.671,21.742A4.5,4.5,0,0,0,63,18.535ZM12,13a3,3,0,0,0,3-3h6a3,3,0,0,0,6,0h6a3,3,0,0,0,6,0h2V29.586l-9.707,9.707a.992.992,0,0,0-.207.3l-4,9a1,1,0,0,0,1.32,1.32l9-4a1,1,0,0,0,.3-.207L41,42.414V57H7V10H9A3,3,0,0,0,12,13ZM31.092,44.506l1.4,1.4L29.97,47.03Zm3.36.532-2.49-2.49.611-1.374,2.6.65.651,2.6Zm3.09-1.994-.572-2.286a1,1,0,0,0-.727-.728l-2.287-.571L50,23.414,53.586,27ZM51.414,22,53,20.414,56.586,24,55,25.586ZM44,6a1,1,0,0,1,1,1V25.586l-2,2V9a1,1,0,0,0-1-1H39V6ZM35,4a1,1,0,0,1,2,0v6a1,1,0,0,1-2,0ZM33,6V8H27V6ZM23,4a1,1,0,0,1,2,0v6a1,1,0,0,1-2,0ZM21,6V8H15V6ZM11,4a1,1,0,0,1,2,0v6a1,1,0,0,1-2,0ZM45,60a1,1,0,0,1-1,1H4a1,1,0,0,1-1-1V7A1,1,0,0,1,4,6H9V8H6A1,1,0,0,0,5,9V58a1,1,0,0,0,1,1H42a1,1,0,0,0,1-1V40.414l2-2ZM60.257,20.328,58,22.586,54.414,19l2.257-2.258a2.536,2.536,0,1,1,3.586,3.586Z"/><path d="M10,23h6a1,1,0,0,0,1-1V16a1,1,0,0,0-1-1H10a1,1,0,0,0-1,1v6A1,1,0,0,0,10,23Zm1-6h4v4H11Z"/><path d="M21,23h6a1,1,0,0,0,1-1V16a1,1,0,0,0-1-1H21a1,1,0,0,0-1,1v6A1,1,0,0,0,21,23Zm1-6h4v4H22Z"/><path d="M31,23h6a1,1,0,0,0,1-1V16a1,1,0,0,0-1-1H31a1,1,0,0,0-1,1v6A1,1,0,0,0,31,23Zm1-6h4v4H32Z"/><path d="M10,33h6a1,1,0,0,0,1-1V26a1,1,0,0,0-1-1H10a1,1,0,0,0-1,1v6A1,1,0,0,0,10,33Zm1-6h4v4H11Z"/><path d="M21,33h6a1,1,0,0,0,1-1V26a1,1,0,0,0-1-1H21a1,1,0,0,0-1,1v6A1,1,0,0,0,21,33Zm1-6h4v4H22Z"/><rect x="9" y="35" width="19" height="2"/><rect x="9" y="39" width="20" height="2"/><path d="M11,47.3a.314.314,0,0,1,.554-.168l.551.826a4.58,4.58,0,0,0,6.352,1.269l.534-.356a1.3,1.3,0,0,1,1.631.162A3.267,3.267,0,0,0,22.949,50H25V48H22.949a1.28,1.28,0,0,1-.913-.378,3.3,3.3,0,0,0-4.154-.412l-.535.356a2.645,2.645,0,0,1-3.577-.714l-.551-.827A2.3,2.3,0,0,0,9,47.3V50h2Z"/><text x="0" y="79" fill="#000000" font-size="5px" font-weight="bold" font-family="'Helvetica Neue', Helvetica, Arial-Unicode, Arial, Sans-serif">Created by nareerat jaikaew</text><text x="0" y="84" fill="#000000" font-size="5px" font-weight="bold" font-family="'Helvetica Neue', Helvetica, Arial-Unicode, Arial, Sans-serif">from the Noun Project</text></svg>