<svg xmlns="http://www.w3.org/2000/svg" data-name="Layer 3" viewBox="0 0 64 80" x="0px" y="0px"><title>worldwide-logistic-transportation-shipping</title><path d="M62.909,17.993a1,1,0,0,0-.529-.773l-3.544-1.856a1.008,1.008,0,0,0-.847-.037l-7.047,2.926-2.525.092A26.935,26.935,0,0,0,28,9c-.868,0-1.745.048-2.613.131L11.006,1.6A5.243,5.243,0,0,0,3.569,7.807a10.348,10.348,0,0,0,5.108,6.119L10.91,15.1A27,27,0,1,0,54.715,39.919a.977.977,0,0,0,.265-.144,1,1,0,0,0,.357-1.022L54,33.212l.025-.047-.041-.022-.5-2.074.239.058a2.921,2.921,0,0,0,2.63-5.021c-.37-.329-.753-.643-1.144-.947l7.354-6.293A1,1,0,0,0,62.909,17.993Zm-17.125.449-2.451.089L36,14.69V12.311A24.93,24.93,0,0,1,45.784,18.442ZM34,11.735v1.907l-4.994-2.615A25.041,25.041,0,0,1,34,11.735ZM10.078,3.37,12.52,4.65l-.464.885A3,3,0,0,1,8.007,6.8L5.437,5.454A3.21,3.21,0,0,1,10.078,3.37ZM4.32,44h.306a9.261,9.261,0,0,1,8.329,5.147A9.822,9.822,0,0,0,16.69,53.18l3.507,2.1a7.868,7.868,0,0,1,3.669,5.368A25.073,25.073,0,0,1,4.32,44ZM25.927,60.906a9.886,9.886,0,0,0-4.7-7.338l-3.508-2.1a7.821,7.821,0,0,1-2.975-3.212A11.252,11.252,0,0,0,4.626,42H3.732a24.841,24.841,0,0,1,.007-12H9a3,3,0,0,1,3,3,5.005,5.005,0,0,0,5,5h1.42A3,3,0,0,1,21.4,40.668l.409,3.679a.586.586,0,0,1-.584.651,2.588,2.588,0,0,0-1.7,4.536l.772.675a7.422,7.422,0,0,0,9.532.211,5.415,5.415,0,0,1,1.485-.845l1.171-.439A5.565,5.565,0,0,1,40,54.346v3.587A24.987,24.987,0,0,1,28,61C27.3,61,26.611,60.963,25.927,60.906ZM42,56.717v-2.37a7.564,7.564,0,0,0-10.221-7.083l-1.172.439a7.442,7.442,0,0,0-2.032,1.155A5.423,5.423,0,0,1,21.61,48.7l-.772-.675A.589.589,0,0,1,21.226,47,2.585,2.585,0,0,0,23.8,44.125l-.408-3.679A5,5,0,0,0,18.419,36H17a3,3,0,0,1-3-3,5.005,5.005,0,0,0-5-5H4.334A25.109,25.109,0,0,1,11.778,16.99a2.971,2.971,0,0,0,1.375,1.538l5.315,2.785a1,1,0,0,0,1.35-.422L20.282,20l5.933,3.109L32.987,35.5a1.009,1.009,0,0,0,.413.406l.6.314V37a6.006,6.006,0,0,0,6,6h3a1,1,0,0,1,1,1,3,3,0,0,0,3,3h3.459A24.85,24.85,0,0,1,42,56.717ZM18.51,19.076l-1.771-.928.928-1.772,1.771.928ZM14.967,17.22l-.886-.464a1,1,0,0,1,.928-1.772l.886.464ZM49.979,37.669a1.011,1.011,0,0,0,.378.348l2.406,1.26A25.087,25.087,0,0,1,51.329,45H47a1,1,0,0,1-1-1,3,3,0,0,0-3-3H40a3.993,3.993,0,0,1-3.972-3.715l2.687,1.407a1,1,0,0,0,1.406-1.222L36.6,27.61l7.955,1.583Zm2.9-.591-1.356-.71-2.172-3.4,2.906,1.522Zm-15.5-1.346L34.6,34.275l-1.729-3.162,3.519,1.843ZM35.4,30.178l-4.257-2.23-5.189-9.491,6.472,3.391Zm11.781-.6L45,26.181l6.006,3.146.622,2.583Zm8.053-.86a.915.915,0,0,1-1.032.467l-1.236-.3-.112-.465a1,1,0,0,0-.509-.652l-9.744-5.1a1,1,0,0,0-1.306,1.425l1.772,2.77-7.244-1.442-1.645-4.607a1,1,0,0,0-.477-.55l-9.744-5.105a1,1,0,0,0-1.342,1.367l1.874,3.428L21.21,18.232l.464-.885A1,1,0,0,0,21.252,16l-5.315-2.784a3,3,0,0,0-3.421.466L9.605,12.154A8.355,8.355,0,0,1,5.716,7.859l1.363.714a4.963,4.963,0,0,0,2.311.57,5.006,5.006,0,0,0,4.438-2.679l.464-.886,36.653,19.2A20.325,20.325,0,0,1,55.026,27.6.917.917,0,0,1,55.229,28.716Zm-3.356-5.711L46.9,20.4l4.292-.157a1.01,1.01,0,0,0,.347-.076l1.971-.819,3.355,1.758-3.348,2.865C52.984,23.629,52.438,23.3,51.873,23.005Zm6.634-3.3-2.588-1.355,2.4-1,1.82.953Z"/><rect x="15.443" y="9.091" width="2" height="2.001" transform="translate(-0.127 19.973) rotate(-62.346)"/><rect x="18.101" y="10.483" width="2" height="2.001" transform="translate(0.067 23.076) rotate(-62.359)"/><rect x="20.758" y="11.875" width="2" height="2.001" transform="translate(0.254 26.17) rotate(-62.34)"/><rect x="35.817" y="19.763" width="2.001" height="2.001" transform="translate(1.343 43.746) rotate(-62.359)"/><rect x="38.475" y="21.155" width="2" height="2.001" transform="translate(1.526 46.834) rotate(-62.34)"/><text x="0" y="79" fill="#000000" font-size="5px" font-weight="bold" font-family="'Helvetica Neue', Helvetica, Arial-Unicode, Arial, Sans-serif">Created by nareerat jaikaew</text><text x="0" y="84" fill="#000000" font-size="5px" font-weight="bold" font-family="'Helvetica Neue', Helvetica, Arial-Unicode, Arial, Sans-serif">from the Noun Project</text></svg>