<svg xmlns="http://www.w3.org/2000/svg" viewBox="0 0 64 80" x="0px" y="0px"><g data-name="Layer 20"><path d="M56,32a23.879,23.879,0,0,0-1.377-8.016C59.439,23.816,63,21.733,63,19c0-1.936-1.773-3.565-4.649-4.4A7.2,7.2,0,0,0,60,10a6,6,0,0,0-12,0,7.2,7.2,0,0,0,1.649,4.6c-.292.085-.576.178-.845.279A23.786,23.786,0,0,0,32,8,24,24,0,1,0,56,32Zm5-13c0,1.416-2.993,3-7,3s-7-1.584-7-3c0-.98,1.564-2.241,4.443-2.765l1.932,1.546a1,1,0,0,0,1.25,0l1.932-1.546C59.436,16.759,61,18.02,61,19ZM54,6a4,4,0,0,1,4,4,5.214,5.214,0,0,1-1.968,4.093L54,15.719l-2.032-1.626A5.214,5.214,0,0,1,50,10,4,4,0,0,1,54,6ZM52.448,23.927a21.875,21.875,0,0,1-2.691,21.04l-8.647-.961a1.077,1.077,0,0,0-.234,0l-7.234.9-1.4-3.493,4.27-2.562a1,1,0,0,0,.38-.41L38.667,34.9l5.5-.916a1,1,0,0,0,.816-.79l1-5a1,1,0,0,0-.664-1.145l-2.449-.816L41.98,21.8A1,1,0,0,0,41,21H38V17.362l4.088-4.906a21.949,21.949,0,0,1,4.818,3.4A3.9,3.9,0,0,0,45,19C45,21.554,48.111,23.54,52.448,23.927ZM20.853,13.044,26,15.618V20a1.006,1.006,0,0,0,.168.555l1.649,2.473L25.434,27H22a1,1,0,0,0-.8.4L18.5,31H16a1,1,0,0,0-.707.293L13.586,33H10.025c-.015-.332-.025-.665-.025-1A22.009,22.009,0,0,1,20.853,13.044ZM12.96,43H19a1,1,0,0,0,1-1V38.618L23.236,37H26v6a1,1,0,0,0,.105.447l3,6a1,1,0,0,0,.653.523L33,50.781v3.194c-.332.015-.665.025-1,.025A22.008,22.008,0,0,1,12.96,43ZM35,53.79V50a1,1,0,0,0-.758-.97l-3.554-.888L28,42.764V36a1,1,0,0,0-1-1H23a1,1,0,0,0-.447.1l-4,2A1,1,0,0,0,18,38v3H11.933a21.8,21.8,0,0,1-1.723-6H14a1,1,0,0,0,.707-.293L16.414,33H19a1,1,0,0,0,.8-.4L22.5,29H26a1,1,0,0,0,.857-.485l3-5a1,1,0,0,0-.025-1.07L28,19.7V15a1,1,0,0,0-.553-.895l-4.393-2.2a21.942,21.942,0,0,1,17.152-.319l-3.975,4.77A1,1,0,0,0,36,17v5a1,1,0,0,0,1,1h3.181l.839,4.2a1,1,0,0,0,.664.753l2.163.72-.693,3.458-5.318.887a1,1,0,0,0-.731.539l-1.87,3.739-4.75,2.851a1,1,0,0,0-.414,1.228l2,5A1,1,0,0,0,33,47a1.049,1.049,0,0,0,.125-.008l7.883-.985,7.245.8A21.972,21.972,0,0,1,35,53.79Z"/><path d="M8.588,20.809a1,1,0,0,0,.341-1.181l-1.641-4.1A4.032,4.032,0,0,1,11,10v2a1,1,0,0,0,1.707.707l5-5a1,1,0,0,0,0-1.414l-5-5A1,1,0,0,0,11,2V4H8.811a7.81,7.81,0,0,0-5,13.81l3.549,2.958a1,1,0,0,0,1.229.041ZM5.431,16.271l.172.43-.512-.427A5.81,5.81,0,0,1,8.811,6H12a1,1,0,0,0,1-1V4.414L15.586,7,13,9.586V9a1,1,0,0,0-1-1h-.969a6.032,6.032,0,0,0-5.6,8.271Z"/><path d="M60.19,46.189l-3.549-2.958a1,1,0,0,0-1.57,1.14l1.641,4.1A4.032,4.032,0,0,1,53,54V52a1,1,0,0,0-1.707-.707l-5,5a1,1,0,0,0,0,1.414l5,5A1,1,0,0,0,52,63a.987.987,0,0,0,.383-.076A1,1,0,0,0,53,62V60h2.189a7.811,7.811,0,0,0,5-13.811ZM55.189,58H52a1,1,0,0,0-1,1v.586L48.414,57,51,54.414V55a1,1,0,0,0,1,1h.969a6.032,6.032,0,0,0,5.6-8.271L58.4,47.3l.512.428A5.809,5.809,0,0,1,55.189,58Z"/><circle cx="54" cy="10" r="2"/></g><text x="0" y="79" fill="#000000" font-size="5px" font-weight="bold" font-family="'Helvetica Neue', Helvetica, Arial-Unicode, Arial, Sans-serif">Created by nareerat jaikaew</text><text x="0" y="84" fill="#000000" font-size="5px" font-weight="bold" font-family="'Helvetica Neue', Helvetica, Arial-Unicode, Arial, Sans-serif">from the Noun Project</text></svg>