<svg xmlns="http://www.w3.org/2000/svg" viewBox="0 0 64 80" x="0px" y="0px"><g data-name="Layer 24"><path d="M57,46H55a1,1,0,0,1-1-1V42.725c.064-.045.136-.078.2-.125A7.033,7.033,0,0,0,57,37V34a6.982,6.982,0,0,0-2.483-5.338,23,23,0,1,0-45.034,0A6.985,6.985,0,0,0,7,34v3a7.035,7.035,0,0,0,2.8,5.6c.063.047.135.081.2.126V45a1,1,0,0,1-1,1H7a6.006,6.006,0,0,0-6,6v4a1,1,0,0,0,1,1v5a1,1,0,0,0,1,1H25a1,1,0,0,0,1-1V57a1,1,0,0,0,1-1V52a6.006,6.006,0,0,0-6-6H19a1,1,0,0,1-1-1V42.725c.064-.045.136-.078.2-.125s.092-.081.14-.119a22.907,22.907,0,0,0,27.321,0c.048.038.091.082.14.119s.135.081.2.126V45a1,1,0,0,1-1,1H43a6.006,6.006,0,0,0-6,6v4a1,1,0,0,0,1,1v5a1,1,0,0,0,1,1H61a1,1,0,0,0,1-1V57a1,1,0,0,0,1-1V52A6.006,6.006,0,0,0,57,46Zm-4-5a5.137,5.137,0,0,1-6,0,5.025,5.025,0,0,1-2-4V35h.838A5.38,5.38,0,0,0,50,33.035,5.38,5.38,0,0,0,54.162,35H55v2A5.023,5.023,0,0,1,53,41Zm1.9-8h-.737a3.385,3.385,0,0,1-3.214-2.316,1,1,0,0,0-1.9,0A3.385,3.385,0,0,1,45.838,33H45.1a5,5,0,0,1,9.8,0Zm-2.2-5.457A7,7,0,0,0,43,34v3a7.024,7.024,0,0,0,1.281,4.015,20.878,20.878,0,0,1-4.273,2.395L37,39.649V36h3a1,1,0,0,0,.965-.737l3-11a1,1,0,0,0-.8-1.249l-5.5-.916L35.9,18.553a1,1,0,0,0-.448-.448l-3.224-1.612,1.462-4.385,6.173.882a.967.967,0,0,0,.36-.014l8.331-1.858A20.879,20.879,0,0,1,53,24,21.191,21.191,0,0,1,52.7,27.543ZM32,3c.338,0,.666.035,1,.051V6.219l-3.242.811a1,1,0,0,0-.653.523l-3,6A1,1,0,0,0,26,14v6H23.236L20,18.382V15a1,1,0,0,0-1-1H13.538A21.018,21.018,0,0,1,32,3ZM11,24h2.586l1.707,1.707A1,1,0,0,0,16,26h2.5l2.7,3.6a1,1,0,0,0,.8.4h3.434l2.383,3.972-1.649,2.473A1.006,1.006,0,0,0,26,37v4.323l-3.5,1.4a21.117,21.117,0,0,1-2.784-1.707A7.024,7.024,0,0,0,21,37V34a7,7,0,0,0-9.7-6.457A21.191,21.191,0,0,1,11,24Zm3,5a5.009,5.009,0,0,1,4.9,4h-.737a3.385,3.385,0,0,1-3.214-2.316,1,1,0,0,0-1.9,0A3.385,3.385,0,0,1,9.838,33H9.1A5.009,5.009,0,0,1,14,29ZM9,37V35h.838A5.38,5.38,0,0,0,14,33.035,5.38,5.38,0,0,0,18.162,35H19v2a5.023,5.023,0,0,1-2,4,5.137,5.137,0,0,1-6,0A5.025,5.025,0,0,1,9,37ZM4,57H7v4H4Zm20,4H21V57h3Zm1-9v3H21V53H19v8H9V53H7v2H3V52a4,4,0,0,1,4-4H8.586l1.293,1.293a5.828,5.828,0,0,0,8.242,0L19.414,48H21A4,4,0,0,1,25,52Zm-7.8-4.615-.494.494a3.829,3.829,0,0,1-5.414,0l-.494-.494A2.985,2.985,0,0,0,12,45V43.691a6.627,6.627,0,0,0,4,0V45A2.985,2.985,0,0,0,17.2,47.385Zm7.885-3.542,2.285-.914A1,1,0,0,0,28,42V37.3l1.832-2.748a1,1,0,0,0,.025-1.07l-3-5A1,1,0,0,0,26,28H22.5l-2.7-3.6A1,1,0,0,0,19,24H16.414l-1.707-1.707A1,1,0,0,0,14,22H11.1a20.822,20.822,0,0,1,1.491-6H18v3a1,1,0,0,0,.553.895l4,2A1,1,0,0,0,23,22h4a1,1,0,0,0,1-1V14.236l2.688-5.378,3.554-.888A1,1,0,0,0,35,7V3.24A20.938,20.938,0,0,1,47.063,9.4l-7.1,1.583-6.819-.974a1,1,0,0,0-1.09.674l-2,6a1,1,0,0,0,.5,1.211l3.7,1.85,1.85,3.7a1,1,0,0,0,.731.539l4.908.819L39.236,34H36a1,1,0,0,0-1,1v5a1,1,0,0,0,.219.625l2.792,3.491a21.069,21.069,0,0,1-12.925-.273ZM50,44a6.986,6.986,0,0,0,2-.309V45a2.985,2.985,0,0,0,1.2,2.385l-.494.494a3.829,3.829,0,0,1-5.414,0l-.494-.494A2.985,2.985,0,0,0,48,45V43.691A6.986,6.986,0,0,0,50,44ZM39,52a4,4,0,0,1,4-4h1.586l1.293,1.293a5.828,5.828,0,0,0,8.242,0L55.414,48H57a4,4,0,0,1,4,4v3H57V53H55v8H45V53H43v2H39Zm1,5h3v4H40Zm20,4H57V57h3Z"/></g><text x="0" y="79" fill="#000000" font-size="5px" font-weight="bold" font-family="'Helvetica Neue', Helvetica, Arial-Unicode, Arial, Sans-serif">Created by nareerat jaikaew</text><text x="0" y="84" fill="#000000" font-size="5px" font-weight="bold" font-family="'Helvetica Neue', Helvetica, Arial-Unicode, Arial, Sans-serif">from the Noun Project</text></svg>