<svg xmlns="http://www.w3.org/2000/svg" data-name="Layer 3" viewBox="0 0 64 80" x="0px" y="0px"><path d="M38,17H10a1,1,0,0,0-1,1v6a1,1,0,0,0,1,1H38a1,1,0,0,0,1-1V18A1,1,0,0,0,38,17Zm-1,6H11V19H37Z"/><path d="M20,27H10a1,1,0,0,0-1,1v6a1,1,0,0,0,1,1H20a1,1,0,0,0,1-1V28A1,1,0,0,0,20,27Zm-1,6H11V29h8Z"/><path d="M20,37H10a1,1,0,0,0-1,1v6a1,1,0,0,0,1,1H20a1,1,0,0,0,1-1V38A1,1,0,0,0,20,37Zm-1,6H11V39h8Z"/><path d="M20,47H10a1,1,0,0,0-1,1v6a1,1,0,0,0,1,1H20a1,1,0,0,0,1-1V48A1,1,0,0,0,20,47Zm-1,6H11V49h8Z"/><rect x="22.999" y="53" width="15.999" height="2"/><path d="M24,11a2,2,0,1,0-2-2A2,2,0,0,0,24,11Z"/><path d="M49,25a13.923,13.923,0,0,0-2,.16V12a5.005,5.005,0,0,0-5-5H32.815A3,3,0,0,0,30,5H28.9a5,5,0,0,0-8.435-2.536A4.957,4.957,0,0,0,19.1,5H18a3,3,0,0,0-2.816,2H6a5,5,0,0,0-5,5V58a5,5,0,0,0,5,5H42a5,5,0,0,0,5-5v-5.16A13.992,13.992,0,1,0,49,25ZM45,12V25.59a13.851,13.851,0,0,0-2,.78V13a2,2,0,0,0-2-2H33V9h9A3,3,0,0,1,45,12ZM36.37,33H23v2H35.59a13.858,13.858,0,0,0,0,8H23v2H36.37A14.077,14.077,0,0,0,41,50.472V57H7V13h8.185A3,3,0,0,0,18,15H30a3,3,0,0,0,2.816-2H41V27.528A14.066,14.066,0,0,0,36.37,33ZM17,8a1,1,0,0,1,1-1h2a1,1,0,0,0,1-1,3,3,0,1,1,6,0,1,1,0,0,0,1,1h2a1,1,0,0,1,1,1v4a1,1,0,0,1-1,1H18a1,1,0,0,1-1-1ZM45,58a3,3,0,0,1-3,3H6a3,3,0,0,1-3-3V12A3,3,0,0,1,6,9h9v2H7a2,2,0,0,0-2,2V57a2,2,0,0,0,2,2H41a2,2,0,0,0,2-2v-5.37a13.839,13.839,0,0,0,2,.78Zm4-7A12,12,0,1,1,61,39,12.013,12.013,0,0,1,49,51Z"/><path d="M58.033,33.865a3.349,3.349,0,0,0-4.339-.121l-7.3,6.018-2.067-1.916a3.3,3.3,0,0,0-4.415,0,2.906,2.906,0,0,0,.18,4.453l5.64,4.483a1,1,0,0,0,1.235.009l10.851-8.386A3,3,0,0,0,59,36.173,2.966,2.966,0,0,0,58.033,33.865Zm-1.439,2.958L46.362,44.729l-5.026-4a.946.946,0,0,1-.376-.706.923.923,0,0,1,.311-.715,1.286,1.286,0,0,1,1.7,0l2.708,2.511a1,1,0,0,0,1.316.039l7.977-6.575a1.337,1.337,0,0,1,1.707.045.958.958,0,0,1,.324.751A.989.989,0,0,1,56.594,36.823Z"/><text x="0" y="79" fill="#000000" font-size="5px" font-weight="bold" font-family="'Helvetica Neue', Helvetica, Arial-Unicode, Arial, Sans-serif">Created by nareerat jaikaew</text><text x="0" y="84" fill="#000000" font-size="5px" font-weight="bold" font-family="'Helvetica Neue', Helvetica, Arial-Unicode, Arial, Sans-serif">from the Noun Project</text></svg>