<svg xmlns="http://www.w3.org/2000/svg" data-name="Layer 3" viewBox="0 0 64 80" x="0px" y="0px"><path d="M7.625,23.913,10.6,25.3a3,3,0,0,0,1.705,3l5.437,2.537a1,1,0,0,0,1.329-.483l.423-.906,6.069,2.832L32.9,44.351a.991.991,0,0,0,.432.386l5.437,2.537a.983.983,0,0,0,.422.095,1,1,0,0,0,.926-1.38L36.148,36.3l8.019,1.217,5.806,8.219a.991.991,0,0,0,.394.329l3.625,1.692a1,1,0,0,0,1.383-1.185L53.788,41.1l.023-.048-.043-.019-.594-2.05.243.047a2.952,2.952,0,0,0,.558.053,2.921,2.921,0,0,0,1.838-5.189c-.385-.313-.782-.609-1.186-.895l7.057-6.623a1,1,0,0,0-.261-1.635L57.8,23.049a1.012,1.012,0,0,0-.849,0L50.044,26.3l-7.591.628L9.386,11.493a5.241,5.241,0,0,0-7.144,6.542A10.345,10.345,0,0,0,7.625,23.913Zm5.044,1.251A1,1,0,0,1,14,24.68l.906.423-.845,1.813-.907-.423A1,1,0,0,1,12.669,25.164Zm5.015,3.443-1.813-.845.846-1.813,1.813.846Zm7.4-.959,6.621,3.09,3.353,8.185-4.356-2.032Zm9.364,15.4-1.873-3.081,3.6,1.68L37.3,44.381Zm17,1.314-2.326-3.293L52.1,42.461l.74,2.553ZM46.8,37.782l-2.326-3.293,6.144,2.867.74,2.553Zm8.006-1.231a.91.91,0,0,1-1.011.515l-1.249-.242-.133-.461a1,1,0,0,0-.538-.627L41.91,31.084a1,1,0,0,0-1.24,1.483l1.9,2.686-7.3-1.108-1.854-4.527a1,1,0,0,0-.5-.527L22.94,24.439a1,1,0,0,0-1.278,1.425l2.03,3.34-3.35-1.563.423-.906a1,1,0,0,0-.483-1.329l-5.438-2.538a3,3,0,0,0-3.4.622L8.471,22.1a8.348,8.348,0,0,1-4.082-4.113l1.394.651a4.957,4.957,0,0,0,2.107.469,5.007,5.007,0,0,0,4.538-2.885l.423-.906,37.495,17.5a20.342,20.342,0,0,1,4.207,2.633A.92.92,0,0,1,54.808,36.551ZM57.376,25.06l1.862.869L57.667,27.4,55.02,26.167Zm-6.987,3.215a1,1,0,0,0,.343-.092l1.932-.908,3.433,1.6-3.214,3.016c-.552-.318-1.113-.621-1.691-.891l-5.085-2.373ZM6.061,13.2a3.222,3.222,0,0,1,2.479.109l2.5,1.166-.423.906a3,3,0,0,1-3.987,1.45L4,15.6a3.174,3.174,0,0,1,2.062-2.4Z"/><rect x="14.207" y="18.727" width="2" height="2" transform="translate(-9.101 25.159) rotate(-64.968)"/><rect x="16.925" y="19.996" width="2" height="1.999" transform="translate(-8.679 28.365) rotate(-64.993)"/><rect x="19.644" y="21.264" width="2" height="1.999" transform="translate(-8.259 31.561) rotate(-64.993)"/><rect x="35.049" y="28.453" width="2" height="1.999" transform="translate(-5.882 49.672) rotate(-64.993)"/><rect x="37.768" y="29.722" width="2" height="2" transform="translate(-5.472 52.849) rotate(-64.968)"/><path d="M55,56a10.736,10.736,0,0,0-1.416.093C52.521,53.673,49.506,52,46,52a9.083,9.083,0,0,0-6.348,2.339A10.418,10.418,0,0,0,37,54a9.364,9.364,0,0,0-5.824,1.877A10.45,10.45,0,0,0,24.93,55.2C24.409,52.27,21.051,50,17,50c-4.412,0-8,2.692-8,6-4.412,0-8,2.692-8,6v1H3V62c0-2.169,2.748-4,6-4a8.62,8.62,0,0,1,1.046.067.989.989,0,0,0,.887-.351,1,1,0,0,0,.189-.934A2.685,2.685,0,0,1,11,56c0-2.168,2.748-4,6-4s6,1.832,6,4a2.706,2.706,0,0,1-.026.362,1,1,0,0,0,1.316,1.084,8.427,8.427,0,0,1,6.548.5,1,1,0,0,0,1.194-.16A7.165,7.165,0,0,1,37,56a8.324,8.324,0,0,1,2.647.424,1,1,0,0,0,1.09-.313A6.887,6.887,0,0,1,46,54c2.954,0,5.5,1.479,5.93,3.44a1,1,0,0,0,.439.63.987.987,0,0,0,.756.134A8.625,8.625,0,0,1,55,58c3.252,0,6,1.831,6,4v1h2V62C63,58.691,59.411,56,55,56Z"/><path d="M48,15a9.145,9.145,0,0,0,4-.887A9.138,9.138,0,0,0,56,15c3.925,0,7-2.2,7-5a4.389,4.389,0,0,0-2.031-3.541A3.378,3.378,0,0,0,61,6c0-2.8-3.075-5-7-5-3.463,0-6.264,1.708-6.876,4.036C43.627,5.335,41,7.408,41,10,41,12.8,44.075,15,48,15Zm0-8a1,1,0,0,0,1-1c0-1.627,2.29-3,5-3s5,1.373,5,3a1.737,1.737,0,0,1-.11.588A1,1,0,0,0,59.347,7.8,2.728,2.728,0,0,1,61,10c0,1.626-2.29,3-5,3a6.884,6.884,0,0,1-3.487-.882,1,1,0,0,0-1.026,0A6.889,6.889,0,0,1,48,13c-2.71,0-5-1.374-5-3S45.29,7,48,7Z"/><path d="M6,43a5.96,5.96,0,0,0,2.2-.412A5.56,5.56,0,0,0,12,44c2.757,0,5-1.794,5-4a4.068,4.068,0,0,0-3.045-3.674,5,5,0,0,0-9.623-1.1A4.125,4.125,0,0,0,1,39C1,41.205,3.243,43,6,43Zm-.716-5.935a1,1,0,0,0,.805-.755,3,3,0,0,1,5.916.6c-.005.04-.014.129-.016.17a1,1,0,0,0,.811,1.009C14.075,38.33,15,39.135,15,40c0,1.084-1.374,2-3,2a3.321,3.321,0,0,1-2.724-1.207,1,1,0,0,0-1.333-.3A3.832,3.832,0,0,1,6,41c-1.626,0-3-.916-3-2C3,38.1,3.96,37.289,5.284,37.064Z"/><path d="M24,12a5.96,5.96,0,0,0,2.2-.412A5.56,5.56,0,0,0,30,13c2.757,0,5-1.794,5-4a4.068,4.068,0,0,0-3.045-3.674A5,5,0,0,0,22.332,4.23,4.125,4.125,0,0,0,19,8C19,10.205,21.243,12,24,12Zm-.716-5.935a1,1,0,0,0,.8-.755,3,3,0,0,1,5.916.6c0,.04-.014.129-.016.17A1,1,0,0,0,30.8,7.085C32.075,7.33,33,8.135,33,9c0,1.084-1.374,2-3,2a3.321,3.321,0,0,1-2.724-1.207,1,1,0,0,0-1.333-.3A3.832,3.832,0,0,1,24,10c-1.626,0-3-.916-3-2C21,7.1,21.96,6.289,23.284,6.064Z"/><text x="0" y="79" fill="#000000" font-size="5px" font-weight="bold" font-family="'Helvetica Neue', Helvetica, Arial-Unicode, Arial, Sans-serif">Created by nareerat jaikaew</text><text x="0" y="84" fill="#000000" font-size="5px" font-weight="bold" font-family="'Helvetica Neue', Helvetica, Arial-Unicode, Arial, Sans-serif">from the Noun Project</text></svg>